# xmcd
#
# Track frame offsets:
#	150
#	9519
#	21570
#	36198
#	52966
#	67566
#	81369
#	94907
#	106748
#	121479
#	134809
#	145672
#
# Disc length: 2104 seconds
#
# Revision: 1
# Processed by: cddbd v1.5.2PL0 Copyright (c) Steve Scherf et al.
# Submitted via: audiograbber 1.83.01
#
DISCID=9e08360c
DTITLE=Skybombers - Take Me To Town
DYEAR=2008
DGENRE=Rock
TTITLE0=On and On
TTITLE1=Always Complaining
TTITLE2=It Goes Off
TTITLE3=If You Want To Be The One
TTITLE4=My Morning's Gone
TTITLE5=Time, Money and Me
TTITLE6=1, 2, 4 To The Floor
TTITLE7=Keys to the City
TTITLE8=Teenage Dreams
TTITLE9=Eleanor's Lullaby
TTITLE10=6 A.M.
TTITLE11=Reason to Live
EXTD=
EXTT0=
EXTT1=
EXTT2=
EXTT3=
EXTT4=
EXTT5=
EXTT6=
EXTT7=
EXTT8=
EXTT9=
EXTT10=
EXTT11=
PLAYORDER=
